<?xml version="1.0" encoding="UTF-8"?>
<svg version="1.1" xmlns="http://www.w3.org/2000/svg" width="50" height="50">
<path d="M0 0 C0.99 0 1.98 0 3 0 C3 0.99 3 1.98 3 3 C7.95 3 12.9 3 18 3 C18 3.99 18 4.98 18 6 C20.31 6 22.62 6 25 6 C25 6.99 25 7.98 25 9 C25.99 9 26.98 9 28 9 C28 13.29 28 17.58 28 22 C27.01 22 26.02 22 25 22 C25 25.96 25 29.92 25 34 C24.01 34 23.02 34 22 34 C22 35.32 22 36.64 22 38 C20.68 38 19.36 38 18 38 C18 38.99 18 39.98 18 41 C17.01 41 16.02 41 15 41 C15 41.99 15 42.98 15 44 C13.02 44 11.04 44 9 44 C9 43.01 9 42.02 9 41 C7.02 41 5.04 41 3 41 C3 41.99 3 42.98 3 44 C1.02 44 -0.96 44 -3 44 C-3 43.01 -3 42.02 -3 41 C-4.32 41 -5.64 41 -7 41 C-7 40.01 -7 39.02 -7 38 C-7.99 38 -8.98 38 -10 38 C-10 36.68 -10 35.36 -10 34 C-10.99 34 -11.98 34 -13 34 C-13 29.05 -13 24.1 -13 19 C-12.01 19 -11.02 19 -10 19 C-10 18.01 -10 17.02 -10 16 C-9.01 16 -8.02 16 -7 16 C-7 15.01 -7 14.02 -7 13 C-5.68 13 -4.36 13 -3 13 C-3 9.7 -3 6.4 -3 3 C-2.01 3 -1.02 3 0 3 C0 2.01 0 1.02 0 0 Z " fill="#C51818" transform="translate(19,3)"/>
<path d="M0 0 C6.27 0 12.54 0 19 0 C19 4.29 19 8.58 19 13 C18.01 13 17.02 13 16 13 C16 12.01 16 11.02 16 10 C11.71 10 7.42 10 3 10 C3 9.01 3 8.02 3 7 C2.01 7 1.02 7 0 7 C0 4.69 0 2.38 0 0 Z " fill="#6FB62C" transform="translate(25,9)"/>
<path d="M0 0 C0.99 0 1.98 0 3 0 C3 0.99 3 1.98 3 3 C7.95 3 12.9 3 18 3 C18 3.99 18 4.98 18 6 C14.04 6 10.08 6 6 6 C6 8.31 6 10.62 6 13 C6.99 13 7.98 13 9 13 C9 13.99 9 14.98 9 16 C6.03 16 3.06 16 0 16 C0 15.01 0 14.02 0 13 C-0.99 13 -1.98 13 -3 13 C-3 9.7 -3 6.4 -3 3 C-2.01 3 -1.02 3 0 3 C0 2.01 0 1.02 0 0 Z " fill="#000000" transform="translate(19,3)"/>
<path d="M0 0 C0.99 0 1.98 0 3 0 C3 4.29 3 8.58 3 13 C2.01 13 1.02 13 0 13 C0 16.96 0 20.92 0 25 C-0.99 25 -1.98 25 -3 25 C-3 21.04 -3 17.08 -3 13 C-5.31 13 -7.62 13 -10 13 C-10 12.01 -10 11.02 -10 10 C-11.98 10 -13.96 10 -16 10 C-16 9.01 -16 8.02 -16 7 C-11.71 7 -7.42 7 -3 7 C-3 7.99 -3 8.98 -3 10 C-2.01 10 -1.02 10 0 10 C0 6.7 0 3.4 0 0 Z " fill="#000000" transform="translate(44,12)"/>
<path d="M0 0 C0.99 0 1.98 0 3 0 C3 4.29 3 8.58 3 13 C1.02 13 -0.96 13 -3 13 C-3 9.7 -3 6.4 -3 3 C-2.01 3 -1.02 3 0 3 C0 2.01 0 1.02 0 0 Z " fill="#685A0D" transform="translate(19,3)"/>
<path d="M0 0 C0.99 0 1.98 0 3 0 C3 0.99 3 1.98 3 3 C3.99 3 4.98 3 6 3 C6 5.97 6 8.94 6 12 C5.01 12 4.02 12 3 12 C3 11.01 3 10.02 3 9 C2.01 9 1.02 9 0 9 C0 6.03 0 3.06 0 0 Z " fill="#EE8181" transform="translate(16,22)"/>
<path d="M0 0 C0.99 0 1.98 0 3 0 C3 4.95 3 9.9 3 15 C2.01 15 1.02 15 0 15 C0 10.05 0 5.1 0 0 Z " fill="#000000" transform="translate(6,22)"/>
<path d="M0 0 C4.29 0 8.58 0 13 0 C13 0.99 13 1.98 13 3 C8.71 3 4.42 3 0 3 C0 2.01 0 1.02 0 0 Z " fill="#4C8217" transform="translate(28,19)"/>
<path d="M0 0 C0.99 0 1.98 0 3 0 C3 3.3 3 6.6 3 10 C2.01 10 1.02 10 0 10 C0 6.7 0 3.4 0 0 Z " fill="#000000" transform="translate(16,6)"/>
<path d="M0 0 C2.31 0 4.62 0 7 0 C7 0.99 7 1.98 7 3 C4.69 3 2.38 3 0 3 C0 2.01 0 1.02 0 0 Z " fill="#000000" transform="translate(37,9)"/>
<path d="M0 0 C1.98 0 3.96 0 6 0 C6 0.99 6 1.98 6 3 C4.02 3 2.04 3 0 3 C0 2.01 0 1.02 0 0 Z " fill="#000000" transform="translate(28,44)"/>
<path d="M0 0 C1.98 0 3.96 0 6 0 C6 0.99 6 1.98 6 3 C4.02 3 2.04 3 0 3 C0 2.01 0 1.02 0 0 Z " fill="#000000" transform="translate(16,44)"/>
<path d="M0 0 C1.98 0 3.96 0 6 0 C6 0.99 6 1.98 6 3 C4.02 3 2.04 3 0 3 C0 2.01 0 1.02 0 0 Z " fill="#000000" transform="translate(22,41)"/>
<path d="M0 0 C1.98 0 3.96 0 6 0 C6 0.99 6 1.98 6 3 C4.02 3 2.04 3 0 3 C0 2.01 0 1.02 0 0 Z " fill="#000000" transform="translate(28,19)"/>
<path d="M0 0 C1.98 0 3.96 0 6 0 C6 0.99 6 1.98 6 3 C4.02 3 2.04 3 0 3 C0 2.01 0 1.02 0 0 Z " fill="#4C8217" transform="translate(28,16)"/>
</svg>
